<svg width="37px" height="36px" viewBox="0 0 37 36" version="1.1" xmlns="http://www.w3.org/2000/svg" xmlns:xlink="http://www.w3.org/1999/xlink">
    <!-- Generator: Sketch 64 (93537) - https://sketch.com -->
    <title>Group 33</title>
    <desc>Created with Sketch.</desc>
    <defs>
        <polygon id="path-1" points="0.0450933841 0.156570513 1.10898198 0.156570513 1.10898198 6.17975962 0.0450933841 6.17975962"></polygon>
        <polygon id="path-3" points="0.0521713064 0.134818453 6.38237179 0.134818453 6.38237179 1.3075 0.0521713064 1.3075"></polygon>
        <polygon id="path-5" points="0 0.0233814103 7.54879186 0.0233814103 7.54879186 3.82418269 0 3.82418269"></polygon>
        <polygon id="path-7" points="0.0553630054 0.0333620159 17.2456635 0.0333620159 17.2456635 27.5641026 0.0553630054 27.5641026"></polygon>
    </defs>
    <g id="Components" stroke="none" stroke-width="1" fill="none" fill-rule="evenodd">
        <g id="Group-33">
            <g id="Group-3" transform="translate(18.108974, 0.003686)">
                <mask id="mask-2" fill="white">
                    <use xlink:href="#path-1"></use>
                </mask>
                <g id="Clip-2"></g>
                <path d="M0.371538462,6.17879808 C0.382275641,6.1794391 0.393173077,6.17975962 0.404230769,6.17975962 C0.605833333,6.17975962 0.869134615,6.06469551 0.884679487,5.82815705 C0.906314103,5.49706731 0.9475,5.16277244 0.987083333,4.839375 C1.04669872,4.35379808 1.10855769,3.85171474 1.10887821,3.33600962 C1.10919872,2.78136218 1.10871795,2.22671474 1.10823718,1.67190705 L1.1074359,0.452195513 C1.1074359,0.342419872 1.0475,0.246426282 0.947179487,0.195625 C0.895737179,0.169663462 0.835320513,0.156522436 0.767532051,0.156522436 C0.527147436,0.156522436 0.267532051,0.306201923 0.267532051,0.548349359 L0.267532051,0.903317308 C0.267532051,1.67270833 0.267532051,2.44209936 0.268173077,3.21116987 C0.268814103,3.74514423 0.210480769,4.25251603 0.148782051,4.78985577 C0.109679487,5.13152244 0.0691346154,5.48456731 0.0457371795,5.8419391 C0.0356410256,5.9981891 0.144294872,6.16389423 0.371538462,6.17879808" id="Fill-1" fill="#000000" mask="url(#mask-2)"></path>
            </g>
            <path d="M24.8322276,6.6288141 C24.8412019,6.6288141 24.8504968,6.62849359 24.8597917,6.62801282 C25.0998558,6.61599359 25.3412019,6.4611859 25.3291827,6.22336538 L25.3291827,6.22320513 C25.3115545,5.87400641 25.6762981,5.31326923 25.9426442,4.90365385 C26.0541827,4.73233974 26.1593109,4.57048077 26.2357532,4.43009615 C26.5466506,3.85846154 26.7822276,3.41503205 26.9995353,2.9924359 C27.0727724,2.84980769 27.1402404,2.68810897 27.2053045,2.53185897 C27.279984,2.35253205 27.356266,2.16935897 27.4423237,2.01150641 C27.6065865,1.9325 27.6710096,1.80253205 27.6662019,1.68458333 L27.9291827,1.34355769 L27.5404006,1.39291667 C27.4936058,1.34932692 27.4335096,1.31951923 27.3652404,1.30798077 C27.1921635,1.27945513 26.9814263,1.37032051 26.8811058,1.47705128 L26.7186058,1.4975641 L26.7647596,1.63698718 C26.6142788,1.86983974 26.5045032,2.13394231 26.3977724,2.39115385 C26.3285417,2.5575 26.2633173,2.71471154 26.1895994,2.85782051 C25.898734,3.42320513 25.5838301,4.01310897 25.2537019,4.61070513 C25.1923237,4.72208333 25.1142788,4.8424359 25.0315865,4.96983974 C24.7657212,5.3799359 24.4645994,5.84467949 24.4897596,6.34387821 C24.4968109,6.48378205 24.6070673,6.6288141 24.8322276,6.6288141" id="Fill-4" fill="#000000"></path>
            <path d="M30.3679808,12.1853045 L30.3692628,12.3526122 C30.3657372,12.3551763 30.3622115,12.3577404 30.3583654,12.359984 L30.3503526,12.1824199 C30.3554808,12.1827404 30.3615705,12.1840224 30.3679808,12.1853045 L30.3679808,12.1853045 Z M29.9435336,12.3452404 C29.9445032,12.4506891 30.0169391,12.6276122 30.2829647,12.6276122 L30.2876122,12.6276122 L30.2877724,12.6276122 C30.6395353,12.6247276 30.9231891,12.4803365 31.1542788,12.3394712 C31.3196635,12.2386699 31.4805609,12.1353045 31.6406571,12.0322596 C31.9606891,11.8264904 32.2629327,11.6319391 32.5969071,11.4607853 C33.1888942,11.1569391 33.8113301,10.8820994 34.4467468,10.6431571 C34.5981891,10.586266 34.7603686,10.5404327 34.9320032,10.4917147 C35.2738301,10.3950801 35.6273558,10.2950801 35.9336058,10.0945994 C36.1621314,9.94508013 36.1231891,9.75293269 36.064375,9.66270833 C35.9366506,9.46735577 35.6073237,9.48097756 35.4477083,9.58578526 C35.2350481,9.72488782 34.9334455,9.80838141 34.6417788,9.8893109 C34.4717468,9.93642628 34.2959455,9.98514423 34.1355288,10.0455609 C33.6255929,10.2375481 33.1180609,10.4542147 32.6271955,10.6894712 C32.1869712,10.9008494 31.758766,11.1111058 31.3586058,11.3625481 C31.2629327,11.4226442 31.164375,11.4998878 31.0600481,11.5817788 C30.8555609,11.7421955 30.6010737,11.9417147 30.4236699,11.9431571 C30.2291186,11.9445994 29.9417788,12.1143109 29.9435336,12.3452404 L29.9435336,12.3452404 Z" id="Fill-6" fill="#000000"></path>
            <g id="Group-10" transform="translate(30.608974, 21.478045)">
                <mask id="mask-4" fill="white">
                    <use xlink:href="#path-3"></use>
                </mask>
                <g id="Clip-9"></g>
                <path d="M6.03410256,0.134903846 C5.78666667,0.141634615 5.55108974,0.184583333 5.32320513,0.225769231 C5.17673077,0.252371795 5.03826923,0.277692308 4.89676282,0.293878205 C4.61775641,0.326089744 4.32897436,0.341634615 4.04980769,0.356698718 C3.83955128,0.368076923 3.62929487,0.379455128 3.41967949,0.397564103 C3.17801282,0.418237179 2.93586538,0.448205128 2.70141026,0.477211538 C2.48474359,0.503974359 2.26807692,0.530897436 2.05701923,0.550128205 C1.97544872,0.554455128 1.20044872,0.573525641 0.864230769,0.576730769 C0.845801282,0.557820513 0.824166667,0.540833333 0.799647436,0.526570513 C0.621282051,0.422884615 0.267275641,0.483141026 0.149487179,0.685865385 L0.0961217949,0.778173077 C0.045,0.866153846 0.0381089744,0.967115385 0.0773717949,1.05509615 C0.118237179,1.14692308 0.203653846,1.21278846 0.311987179,1.23538462 C0.561025641,1.28762821 0.819519231,1.3075 1.08025641,1.3075 C1.53778846,1.3075 2.00125,1.24612179 2.42849359,1.18939103 C2.57112179,1.17048077 2.71166667,1.15189103 2.84900641,1.13586538 C3.21679487,1.09275641 3.59419872,1.06791667 3.95910256,1.04403846 C4.11807692,1.03362179 4.27721154,1.02320513 4.43634615,1.01134615 C4.66951923,0.993717949 4.90253205,0.954134615 5.12785256,0.915833333 C5.39948718,0.869679487 5.65589744,0.826089744 5.90766026,0.819198718 C6.07897436,0.814391026 6.38923077,0.654935897 6.38233974,0.408942308 C6.37945513,0.303814103 6.30461538,0.130416667 6.03410256,0.134903846" id="Fill-8" fill="#000000" mask="url(#mask-4)"></path>
            </g>
            <path d="M13.0195032,24.9454647 C12.9315224,24.9472276 12.8432212,24.9481891 12.7529968,24.9472276 C12.6789583,24.9473878 12.5911378,24.9717468 12.5108494,25.015016 C12.0328045,25.1071635 11.571266,25.2653365 11.1211058,25.4198237 C10.5906571,25.601875 10.0895353,25.7736699 9.56501603,25.8469071 C9.20972756,25.8964263 8.84450321,25.9329647 8.49161859,25.9685417 C8.25267628,25.9925801 8.01389423,26.0166186 7.77591346,26.0443429 C7.52751603,26.0736699 7.31309295,26.0986699 7.05940705,26.2909776 C6.92463141,26.3929006 6.91709936,26.5100481 6.92479167,26.570625 C6.93697115,26.6682212 7.00235577,26.7510737 7.09979167,26.7919391 C7.15283654,26.814375 7.22511218,26.8260737 7.30171474,26.8260737 C7.42222756,26.8260737 7.55315705,26.7970673 7.63488782,26.7350481 C7.74466346,26.6677404 8.26100962,26.6480288 8.48152244,26.6395353 C8.61822115,26.6344071 8.72623397,26.6304006 8.79899038,26.6214263 L9.04274038,26.5924199 C9.44386218,26.5453045 9.85876603,26.4965865 10.2638942,26.4111699 C10.6727083,26.3249519 11.0691827,26.1797596 11.4523558,26.039375 C11.9635737,25.8521955 12.4469071,25.6752724 12.9526763,25.6283173 L13.0701442,25.6252724 L13.0804006,25.6034776 C13.2376122,25.5486699 13.4078045,25.4017147 13.3986699,25.2187019 C13.3964263,25.1719071 13.3789583,25.1105288 13.3361699,25.0578045 L13.4037981,24.9134135 L13.0195032,24.9454647 Z" id="Fill-11" fill="#000000"></path>
            <g id="Group-15" transform="translate(0.000000, 14.587019)">
                <mask id="mask-6" fill="white">
                    <use xlink:href="#path-5"></use>
                </mask>
                <g id="Clip-14"></g>
                <path d="M6.96035256,3.81328526 C6.99288462,3.82081731 7.02717949,3.82418269 7.0624359,3.82418269 C7.20891026,3.82418269 7.36932692,3.763125 7.46019231,3.66504808 C7.54,3.5793109 7.56804487,3.46488782 7.53551282,3.35911859 C7.38310897,2.86392628 6.86660256,2.74133013 6.58919872,2.67530449 C6.37397436,2.62418269 6.15762821,2.58123397 5.94833333,2.53956731 C5.59192308,2.46857372 5.25522436,2.40158654 4.91708333,2.29709936 C3.39432692,1.82674679 2.11532051,1.1281891 1.00907051,0.162644231 L0.951217949,0.0233814103 L0.848012821,0.0584775641 C0.681826923,0.00575320513 0.460192308,0.0573557692 0.350096154,0.136041667 C0.299775641,0.172099359 0.262115385,0.21713141 0.238717949,0.266650641 L-6.41025641e-05,0.348221154 L0.26275641,0.580272436 L0.278141026,0.617291667 C0.320929487,0.720336538 0.412596154,0.791009615 0.531666667,0.813285256 C1.51179487,1.63780449 2.57076923,2.25831731 3.68342949,2.65959936 C4.26419872,2.86889423 4.89032051,3.08043269 5.53294872,3.20927885 C5.62557692,3.22802885 5.73054487,3.24133013 5.84160256,3.25543269 C6.17990385,3.29854167 6.64320513,3.35751603 6.71676282,3.59677885 C6.75057692,3.70671474 6.83951923,3.7855609 6.96035256,3.81328526" id="Fill-13" fill="#000000" mask="url(#mask-6)"></path>
            </g>
            <path d="M6.78836538,3.17689103 C7.09509615,3.15365385 7.46448718,3.68089744 7.66304487,3.96535256 L7.71432692,4.03875 C7.83147436,4.20461538 7.94717949,4.37144231 8.06304487,4.53826923 C8.25471154,4.81455128 8.45310897,5.10028846 8.65519231,5.37833333 C8.73211538,5.48394231 8.80983974,5.59323718 8.88900641,5.70445513 C9.53467949,6.61086538 10.2664103,7.63826923 11.3449359,8.04051282 C11.3846795,8.05525641 11.4276282,8.06166667 11.4716987,8.06166667 C11.6236218,8.06150641 11.7878846,7.98538462 11.8715385,7.9163141 C12.0026282,7.80814103 11.9976603,7.68346154 11.9894872,7.63490385 C11.9726603,7.53474359 11.903109,7.45509615 11.7987821,7.4163141 C11.1729808,7.18282051 10.7127244,6.66583333 10.2949359,6.15605769 C9.83275641,5.59227564 9.35775641,4.95589744 8.80038462,4.15301282 C8.73916667,4.06471154 8.67602564,3.9674359 8.61032051,3.86583333 C8.21641026,3.2575 7.67554487,2.42849359 6.79701923,2.49900641 C6.63259615,2.51278846 6.47987179,2.61214744 6.41705128,2.74580128 C6.37009615,2.84580128 6.37778846,2.95701923 6.43788462,3.04339744 C6.48676282,3.11358974 6.5875641,3.19371795 6.78836538,3.17689103" id="Fill-16" fill="#000000"></path>
            <path d="M6.20477564,10.49 C6.46695513,10.8758974 6.98714744,10.9826282 7.36695513,11.0608333 L7.45525641,11.0791026 C7.60958333,11.1116346 7.76791667,11.1560256 7.93554487,11.2029808 C8.29051282,11.3023397 8.65717949,11.4052244 9.02625,11.4052244 C9.03794872,11.4052244 9.04948718,11.4050641 9.0611859,11.4049038 C9.22320513,11.4020192 9.42432692,11.2840705 9.50012821,11.1473718 C9.55125,11.0550641 9.55125,10.9491346 9.49996795,10.8640385 C9.45974359,10.796891 9.37320513,10.7158013 9.1924359,10.7204487 C8.95044872,10.7241346 8.65717949,10.6417628 8.37512821,10.5613141 C8.21519231,10.5158013 8.04996795,10.4686859 7.89179487,10.4372756 C7.84852564,10.4286218 7.80301282,10.4201282 7.75573718,10.4114744 C7.45301282,10.3552244 7.07608974,10.2855128 6.93586538,10.0792628 C6.79483974,9.87173077 6.48346154,9.92092949 6.31310897,10.0369551 C6.12625,10.1638782 6.11711538,10.3608333 6.20477564,10.49 Z" id="Fill-18" fill="#000000"></path>
            <path d="M14.6704327,6.29108974 L14.7279647,6.42586538 C14.7745994,6.53564103 14.8770032,6.60791667 15.0085737,6.62378205 C15.0270032,6.62602564 15.046234,6.62714744 15.0661058,6.62714744 C15.2124199,6.62714744 15.3946314,6.56705128 15.489984,6.44012821 C15.5566506,6.35134615 15.5713942,6.23964744 15.5294071,6.14108974 L15.4717147,6.00615385 C15.2409455,5.46560897 15.0229968,4.95503205 14.8737981,4.39525641 C14.8449519,4.28708333 14.7588942,4.20407051 14.6435096,4.17282051 C14.4802083,4.12955128 14.258734,4.18788462 14.1391827,4.30727564 C14.0544071,4.39173077 14.0210737,4.50679487 14.0499199,4.61528846 C14.2080929,5.20839744 14.4327724,5.73419872 14.6704327,6.29108974" id="Fill-20" fill="#000000"></path>
            <path d="M22.0924519,5.92065705 C22.1472596,5.94918269 22.2108814,5.96136218 22.276266,5.96136218 C22.3919712,5.96136218 22.512484,5.92322115 22.5961378,5.86969551 C22.7139263,5.794375 22.7783494,5.68075321 22.7729006,5.55767628 C22.7658494,5.39886218 22.8017468,5.22770833 22.8398878,5.04661859 C22.8607212,4.94725962 22.881234,4.84870192 22.8954968,4.75110577 C22.9235417,4.5594391 22.9458173,4.36713141 22.9679327,4.17466346 L22.993734,3.95543269 C23.0120032,3.80334936 22.9164904,3.6355609 22.6987019,3.60927885 C22.4970994,3.58620192 22.1878045,3.68988782 22.1571955,3.94309295 L22.1310737,4.16665064 C22.1052724,4.39004808 22.0786699,4.62113782 22.0426122,4.84421474 C22.031234,4.91552885 22.0171314,4.98604167 22.0030288,5.05607372 C21.9639263,5.25190705 21.9235417,5.4543109 21.9333173,5.67546474 C21.9379647,5.77963141 21.9974199,5.87129808 22.0924519,5.92065705" id="Fill-22" fill="#000000"></path>
            <path d="M27.1709776,9.19479167 C27.1935737,9.25232372 27.2560737,9.35264423 27.4212981,9.37764423 C27.4456571,9.38116987 27.4732212,9.38325321 27.5028686,9.38325321 C27.6454968,9.38325321 27.8350801,9.33758013 27.9321955,9.21578526 C28.1799519,8.90520833 28.4589583,8.59222756 28.7849199,8.25889423 C28.8661699,8.17588141 28.9467788,8.08549679 29.0285096,7.99415064 C29.1430929,7.86578526 29.2602404,7.73469551 29.3815545,7.62283654 C29.4865224,7.6056891 29.5902083,7.56065705 29.6629647,7.49463141 C29.7118429,7.45024038 29.7456571,7.39783654 29.763125,7.34174679 L30.2246635,7.03469551 L29.7224199,7.02572115 C29.6889263,6.96482372 29.6350801,6.91690705 29.5671314,6.88934295 C29.3932532,6.81899038 29.1695353,6.90456731 29.0942147,6.95456731 C29.0658494,6.97363782 29.0379647,6.99334936 29.0105609,7.01338141 L28.8600801,7.01097756 L28.882516,7.11466346 C28.7004647,7.2681891 28.5405288,7.44383013 28.3844391,7.61546474 C28.307516,7.69991987 28.2310737,7.78389423 28.1530288,7.86370192 C27.7962981,8.22876603 27.4916506,8.57043269 27.2219391,8.90841346 C27.1523878,8.99543269 27.1337981,9.09991987 27.1709776,9.19479167" id="Fill-24" fill="#000000"></path>
            <path d="M31.2975,17.5397115 C31.5667308,17.4714423 31.8212179,17.406859 32.0603205,17.406859 L32.0643269,17.406859 C32.2247436,17.406859 32.4260256,17.2930769 32.5045513,17.1579808 C32.5579167,17.0661538 32.56,16.9594231 32.5101603,16.8727244 C32.4708974,16.8042949 32.3859615,16.7227244 32.2045513,16.7224038 L32.1978205,16.7224038 C31.7987821,16.7224038 31.4127244,16.8102244 31.0393269,16.8953205 C30.7840385,16.9533333 30.5430128,17.008141 30.2991026,17.0366667 C30.1745833,17.0514103 30.021859,17.0869872 29.86,17.1244872 C29.5776282,17.1901923 29.104391,17.3004487 28.9494231,17.2129487 C28.7816346,17.1183974 28.5608013,17.1972436 28.4566346,17.2587821 C28.2909295,17.3566987 28.2675321,17.4836218 28.2681605,17.550609 C28.2692949,17.6563782 28.3274679,17.7493269 28.4276282,17.8055769 C28.5882051,17.8959615 28.7611218,17.926891 28.9333974,17.926891 C29.1422115,17.926891 29.3502244,17.8813782 29.5333974,17.8411538 C29.5898077,17.8288141 29.6446154,17.8167949 29.6973397,17.8065385 C29.9164103,17.764391 30.1338782,17.7377885 30.3641667,17.7097436 C30.4838782,17.6951603 30.6035897,17.6804167 30.7236218,17.6634295 C30.916891,17.6365064 31.1103205,17.5873077 31.2975,17.5397115" id="Fill-26" fill="#000000"></path>
            <path d="M8.64774038,22.0752564 L8.69838141,22.0561859 C8.7469391,22.0379167 8.83059295,22.0021795 8.93508013,21.9574679 C9.13908654,21.8701282 9.70302885,21.6284615 9.963125,21.5750962 C9.97899038,21.6044231 10.0001442,21.6311859 10.0261058,21.6542628 C10.1490224,21.7633974 10.3402083,21.7529808 10.4781891,21.7069872 C10.6341186,21.6550641 10.7384455,21.5521795 10.7644071,21.4249359 C10.820016,21.1539423 10.7046314,21.0061859 10.6310737,20.9424038 C10.4299519,20.7675641 10.0801122,20.7776603 9.52995192,20.9739744 C9.38668269,21.0250962 9.21072115,21.1105128 9.00703526,21.2097115 C8.52177885,21.4452885 7.70991987,21.8390385 7.45911859,21.5999359 C7.27626603,21.4252564 6.93315705,21.5190064 6.79100962,21.6677244 C6.6719391,21.7920833 6.67290064,21.9726923 6.79325321,22.0879167 C6.99645833,22.2823077 7.24998397,22.3507372 7.51344551,22.3507372 C7.91745192,22.3507372 8.344375,22.1896795 8.64774038,22.0752564" id="Fill-28" fill="#000000"></path>
            <g id="Group-32" transform="translate(10.897436, 7.535737)">
                <mask id="mask-8" fill="white">
                    <use xlink:href="#path-7"></use>
                </mask>
                <g id="Clip-31"></g>
                <path d="M12.8781891,21.6529327 C12.8557532,21.8558173 12.8076763,22.1123878 12.7230609,22.4216827 C12.6730609,22.461266 12.631875,22.5109455 12.6087981,22.572484 C12.5876442,22.6292147 12.5862019,22.6885096 12.599984,22.7447596 C12.5347596,22.8729647 12.4507853,22.9998878 12.3352404,23.1388301 C11.9416506,23.6120673 11.5161699,23.6354647 10.7982212,23.636266 L10.7661699,23.636266 C9.70270833,23.636266 9.03059295,23.5659135 8.68844551,22.6913942 C8.61536859,22.5045353 8.57883013,22.3271314 8.56424679,22.1325801 C8.9656891,22.3617468 9.41376603,22.4308173 9.85895833,22.4308173 C10.0086378,22.4308173 10.1578365,22.423125 10.3047917,22.411266 C10.8751442,22.3659135 12.0942147,22.2051763 12.8781891,21.6529327 M12.5169712,24.5936378 C12.0520673,25.3708814 10.4817147,25.5595032 9.69277244,25.1279327 L9.54709936,25.0486058 C9.34197115,24.9375481 9.12979167,24.8226442 8.94517628,24.7027724 C8.75415064,24.578734 8.63588141,24.3303365 8.57498397,23.9298558 C8.61504808,23.9598237 8.65286859,23.991234 8.69661859,24.0178365 C9.13828526,24.2865865 9.65495192,24.3250481 10.1472596,24.3266506 C10.2894071,24.3271314 10.4370032,24.3335417 10.5868429,24.3399519 C10.7555929,24.3471635 10.9265865,24.354375 11.0970994,24.354375 C11.374984,24.354375 11.6517468,24.334984 11.9164904,24.2638301 C12.2301122,24.1796955 12.5065545,24.0125481 12.7413301,23.8003686 C12.701266,24.1128686 12.620016,24.4212019 12.5169712,24.5936378 M12.0296314,26.2534135 C11.7783494,26.6655929 11.0427724,26.9054968 10.5530288,26.8454006 C9.73796474,26.7445994 9.37225962,26.2447596 9.21232372,25.7415545 C9.6668109,25.9838622 10.0703365,25.986266 10.5352404,25.9867468 L10.6445353,25.9869071 L10.6813942,25.9869071 C11.1416506,25.9869071 11.6642468,25.948125 12.1520673,25.7561378 C12.1419712,25.9423558 12.1113622,26.1191186 12.0296314,26.2534135 M7.77899038,11.7628686 C7.68235577,11.0173558 7.875625,10.304375 8.35895833,9.62328526 C8.58572115,9.30245192 8.80110577,9.02953526 9.00527244,8.804375 C9.67995192,7.98225962 9.99245192,7.37616987 9.94197115,6.98610577 C9.90623397,6.71078526 9.72802885,6.4830609 9.40719551,6.30293269 C9.08652244,6.123125 8.77690705,6.05229167 8.47866987,6.09107372 C8.18027244,6.12969551 7.91344551,6.23145833 7.67834936,6.39588141 C7.44293269,6.56046474 7.27963141,6.74219551 7.18908654,6.94043269 C6.92722756,7.44091346 6.71040064,7.70229167 6.53828526,7.72472756 C6.04485577,7.78850962 5.76713141,7.57953526 5.70463141,7.09780449 C5.64822115,6.66190705 5.894375,6.17809295 6.44389423,5.64588141 C6.99293269,5.11415064 7.60030449,4.80501603 8.26584936,4.71863782 C9.20639423,4.59684295 10.0020673,4.88466346 10.6522276,5.58177885 C11.0052724,5.96767628 11.2104006,6.37841346 11.2668109,6.8143109 C11.3650481,7.57136218 11.1496635,8.34027244 10.6209776,9.12024038 C10.3956571,9.45293269 10.1682532,9.76799679 9.93860577,10.0657532 C9.38940705,10.778734 9.12834936,11.2383494 9.15495192,11.4447596 C9.18171474,11.6511699 9.29165064,11.8704006 9.48508013,12.1018109 C9.6668109,12.3348237 9.76376603,12.4971635 9.77578526,12.5888301 C9.78764423,12.6809776 9.77225962,12.7880288 9.72979167,12.909984 C9.61889423,13.1343429 9.4344391,13.2630288 9.17626603,13.2963622 C8.91825321,13.3298558 8.63459936,13.1889904 8.32530449,12.8732853 C8.01600962,12.5575801 7.83395833,12.1875481 7.77899038,11.7628686 M8.86152244,15.0521314 C8.99405449,14.8598237 9.1980609,14.7460417 9.47322115,14.7104647 C9.74854167,14.6747276 9.9531891,14.7005288 10.0870032,14.7883494 C10.2208173,14.8758494 10.3100801,15.0917147 10.3546314,15.4359455 C10.4334776,16.0439583 10.1974199,16.3835417 9.6469391,16.4548558 C9.44036859,16.4816186 9.23764423,16.4029327 9.03892628,16.2189583 C8.84004808,16.0346635 8.72754808,15.8420353 8.70158654,15.641234 C8.67546474,15.4407532 8.72883013,15.2442788 8.86152244,15.0521314 M12.4892468,20.1080609 C12.5974199,20.1590224 12.6634455,20.2468429 12.6969391,20.3845032 C12.7113622,20.4441186 12.7158494,20.5006891 12.7156932,20.5558173 C12.7095994,20.5611058 12.7025481,20.566234 12.6969391,20.5715224 C12.6113622,20.6542147 12.5770673,20.760625 12.6027083,20.8635096 C12.6047917,20.8715224 12.607516,20.8804968 12.6108814,20.8897917 C12.2554327,21.4069391 11.1672917,21.6204006 10.7144071,21.6883494 C10.2652083,21.7554968 9.75078526,21.8098237 9.34116987,21.7022917 C8.99133013,21.6103045 8.76649038,21.3825801 8.58059295,21.0604647 C8.59790064,21.054375 8.61456731,21.0479647 8.63059295,21.0404327 C9.3668109,20.9521314 9.98604167,20.8186378 10.5482212,20.6272917 C10.8188942,20.534984 11.100625,20.4163942 11.4345994,20.253734 C11.757516,20.0963622 12.2253045,19.9838622 12.4892468,20.1080609 M16.6482212,5.47408654 C16.3764263,4.80790064 15.976266,4.12120192 15.3889263,3.31302885 C14.7823558,2.47857372 13.8903686,1.85501603 13.1735417,1.35405449 C11.7429327,0.353894231 10.2163301,-0.0712660256 8.50591346,0.0550160256 C6.51857372,0.201650641 4.88123397,0.77536859 3.35254808,1.860625 C1.73572115,3.00870192 0.766009615,4.310625 0.301426282,5.9580609 C-0.123413462,7.46399038 0.00735576923,9.47232372 0.651266026,11.3308173 C0.956233974,12.210625 1.45767628,13.1250481 2.14197115,14.048766 C2.58027244,14.6404327 3.119375,15.1784135 3.64084936,15.6986058 C3.90879808,15.9657532 4.18572115,16.2420353 4.43972756,16.5170353 C4.54293269,16.628734 4.64581731,16.742516 4.74918269,16.8567788 C5.2781891,17.4415545 5.82514423,18.0460417 6.49725962,18.4846635 C6.58475962,18.541875 6.67979167,18.6005288 6.77834936,18.661266 C7.20206731,18.9221635 7.68203526,19.2178365 7.87834936,19.6008494 C8.00222756,19.8426763 8.02899038,20.1353045 8.03411859,20.4332212 C7.93524038,20.461266 7.84661859,20.5184776 7.78828526,20.5937981 C7.73155449,20.6240865 7.68123397,20.6643109 7.64485577,20.7146314 C7.59197115,20.7873878 7.57610577,20.8747276 7.59501603,20.9574199 C7.57866987,21.0454006 7.60126603,21.1357853 7.66296474,21.2058173 C7.69357372,21.2409135 7.71408654,21.2899519 7.72834936,21.3473237 C7.71248397,21.3851442 7.70142628,21.4252083 7.70142628,21.4695994 C7.70142628,21.6966827 7.70030449,21.9239263 7.69918269,22.1511699 C7.69709936,22.5910737 7.69485577,23.0455609 7.70094551,23.4934776 C7.70831731,24.0332212 7.75447115,24.5869071 8.03972756,24.9820994 C8.09934295,25.0647917 8.17626603,25.1383494 8.26168269,25.2062981 C8.29774038,25.9353045 8.5656891,26.5441186 9.04229167,26.9681571 C9.4793109,27.3569391 10.0751442,27.5641506 10.7429327,27.5641506 C10.8365224,27.5641506 10.9317147,27.559984 11.0280288,27.5518109 C11.6257853,27.5006891 12.3014263,27.0752083 12.6336378,26.7008494 C13.0147276,26.2716827 13.0017468,25.7138301 12.9905288,25.2216827 C12.9903686,25.2136699 12.9903686,25.2058173 12.9902083,25.1978045 C13.0466186,25.1388301 13.1020673,25.0768109 13.1547917,25.0087019 C13.4645673,24.6083814 13.5169712,24.1325801 13.544375,23.679375 C13.5479006,23.6194391 13.5538301,23.5577404 13.5597596,23.4945994 C13.5844391,23.2345032 13.6115224,22.9255288 13.4975801,22.6486058 C13.5237019,22.5739263 13.5469391,22.4998878 13.5650481,22.4274519 C13.6607212,22.0431571 13.8807532,21.153734 13.5565545,20.6875481 C13.6022276,20.4205609 13.5546314,20.1476442 13.4108814,19.9051763 C13.2842788,19.6910737 13.0948558,19.523766 12.8740224,19.416234 C12.8647276,18.6335417 12.8626442,17.7559776 13.274984,17.1147917 C13.5331571,16.7131891 13.8847596,16.3277724 14.2248237,15.9553365 C14.4280288,15.7329006 14.638125,15.5026122 14.8272276,15.2704006 C14.9030288,15.1771314 14.9894071,15.0870673 15.0809135,14.991875 C15.2584776,14.8067788 15.4419712,14.6155929 15.5708173,14.3753686 C15.7116827,14.1125481 15.8307532,13.8309776 15.9459776,13.5585417 C15.9900481,13.4542147 16.0341186,13.3503686 16.0788301,13.2484455 C16.5071955,12.2742468 16.8278686,11.3396314 17.0323558,10.4707212 C17.4169712,8.83578526 17.2770673,7.01447115 16.6482212,5.47408654" id="Fill-30" fill="#000000" mask="url(#mask-8)"></path>
            </g>
        </g>
    </g>
</svg>