<svg width="98px" height="53px" viewBox="0 0 98 53" version="1.1" xmlns="http://www.w3.org/2000/svg" xmlns:xlink="http://www.w3.org/1999/xlink">
    <!-- Generator: Sketch 64 (93537) - https://sketch.com -->
    <title>Group 43</title>
    <desc>Created with Sketch.</desc>
    <defs>
        <polygon id="path-1" points="0.12312931 0.367645277 12.5105505 0.367645277 12.5105505 28.75 0.12312931 28.75"></polygon>
        <polygon id="path-3" points="0 0.432 8.65931274 0.432 8.65931274 2.307 0 2.307"></polygon>
        <polygon id="path-5" points="0.00974975738 0.96175 27.5825 0.96175 27.5825 2.83675 0.00974975738 2.83675"></polygon>
        <polygon id="path-7" points="0.21175 0.4875 6.66175 0.4875 6.66175 10.460625 0.21175 10.460625"></polygon>
    </defs>
    <g id="Components" stroke="none" stroke-width="1" fill="none" fill-rule="evenodd">
        <g id="Group-43" transform="translate(0.000000, -1.000000)">
            <path d="M59.925625,15.896 C59.845625,20.5385 59.911875,25.18225 60.123125,29.82225 C60.160625,30.6335 61.930625,30.6385 61.893125,29.82225 C61.681875,25.18225 61.615625,20.5385 61.695625,15.896 C61.709375,15.081 59.939375,15.081 59.925625,15.896" id="Fill-1" fill="#FFFFFF"></path>
            <g id="Group-5" transform="translate(56.000000, 24.513125)">
                <mask id="mask-2" fill="white">
                    <use xlink:href="#path-1"></use>
                </mask>
                <g id="Clip-4"></g>
                <path d="M7.4205,2.46075 C9.22675,1.37575 10.69175,3.28825 10.738,4.9645 C10.61425,6.797 6.953,8.272 6.0455,6.34075 C5.453,5.072 6.27425,3.14825 7.4205,2.46075 M12.47675,5.22575 C12.498,5.1445 12.5105505,5.0595 12.508,4.9645 C12.5155,4.87325 12.5055,4.79075 12.4905,4.7145 C12.29675,2.2495 10.3005,-0.20425 7.593,0.48575 C5.218,1.0895 3.743,3.912 4.188,6.242 C4.21175,6.3645 4.2405,6.4795 4.273,6.59325 C4.198,6.662 4.1305,6.752 4.07675,6.86825 C2.808,9.66825 2.18675,12.69575 1.438,15.66325 C1.158,16.767 2.86425,17.23825 3.14425,16.13325 C3.59675,14.342 3.988,12.502 4.52425,10.717 C4.61675,12.7445 4.64675,14.812 4.22175,16.557 C3.85425,18.0695 2.82175,19.40575 2.19425,20.852 C1.37925,22.732 0.7705,24.68825 0.16675,26.64325 C-0.1695,27.73575 1.538,28.202 1.87425,27.1145 C2.55175,24.9145 3.21925,22.68075 4.2405,20.6095 C4.25925,20.572 4.278,20.53825 4.29675,20.50325 C4.5855,23.057 5.16425,25.63575 5.543,28.11075 C5.71425,29.232 7.4205,28.7545 7.24925,27.6395 C6.7405,24.307 5.843,20.77575 5.8905,17.3995 C5.98175,17.1345 6.05925,16.862 6.1055,16.57325 C6.34425,15.09825 6.35925,13.502 6.31425,11.89575 C7.188,13.6245 7.898,15.37075 8.23175,17.2895 C8.428,18.4095 10.13425,17.93575 9.93925,16.81825 C9.68175,15.33575 9.2155,13.947 8.6005,12.5745 C8.098,11.447 7.13425,10.1345 6.61675,8.84575 C8.94925,9.39325 12.10675,7.7995 12.47675,5.22575" id="Fill-3" fill="#FFFFFF" mask="url(#mask-2)"></path>
            </g>
            <g id="Group-8" transform="translate(0.000000, 13.263125)">
                <mask id="mask-4" fill="white">
                    <use xlink:href="#path-3"></use>
                </mask>
                <g id="Clip-7"></g>
                <path d="M0.905875,2.307 L7.754625,2.307 C8.959625,2.307 8.962125,0.432 7.754625,0.432 L0.905875,0.432 C-0.301625,0.432 -0.302875,2.307 0.905875,2.307" id="Fill-6" fill="#FFFFFF" mask="url(#mask-4)"></path>
            </g>
            <path d="M18.216625,16.140125 L26.777875,16.140125 C27.982875,16.140125 27.985375,14.265125 26.777875,14.265125 L18.216625,14.265125 C17.010375,14.265125 17.007875,16.140125 18.216625,16.140125" id="Fill-9" fill="#FFFFFF"></path>
            <path d="M36.478375,16.900625 L46.370875,16.900625 C47.577125,16.900625 47.579625,15.025625 46.370875,15.025625 L36.478375,15.025625 C35.272125,15.025625 35.269625,16.900625 36.478375,16.900625" id="Fill-11" fill="#FFFFFF"></path>
            <path d="M52.07775,16.900625 L63.3015,16.900625 C64.5065,16.900625 64.509,15.025625 63.3015,15.025625 L52.07775,15.025625 C50.87025,15.025625 50.869,16.900625 52.07775,16.900625" id="Fill-13" fill="#FFFFFF"></path>
            <path d="M1.2855,41.412375 L10.25425,41.412375 C11.4605,41.412375 11.463,39.537375 10.25425,39.537375 L1.2855,39.537375 C0.07925,39.537375 0.07675,41.412375 1.2855,41.412375" id="Fill-15" fill="#FFFFFF"></path>
            <path d="M18.81475,42.36325 L28.516,42.36325 C29.7235,42.36325 29.72475,40.48825 28.516,40.48825 L18.81475,40.48825 C17.60725,40.48825 17.606,42.36325 18.81475,42.36325" id="Fill-17" fill="#FFFFFF"></path>
            <path d="M38.787875,42.36325 L48.299125,42.36325 C49.506625,42.36325 49.507875,40.48825 48.299125,40.48825 L38.787875,40.48825 C37.581625,40.48825 37.579125,42.36325 38.787875,42.36325" id="Fill-19" fill="#FFFFFF"></path>
            <g id="Group-23" transform="translate(69.750000, 39.513125)">
                <mask id="mask-6" fill="white">
                    <use xlink:href="#path-5"></use>
                </mask>
                <g id="Clip-22"></g>
                <path d="M0.915375,2.83675 L26.676625,2.83675 C27.884125,2.83675 27.885375,0.96175 26.676625,0.96175 L0.915375,0.96175 C-0.290875,0.96175 -0.293375,2.83675 0.915375,2.83675" id="Fill-21" fill="#FFFFFF" mask="url(#mask-6)"></path>
            </g>
            <path d="M2.77725,5.465125 C3.55725,5.595125 4.27225,5.658875 4.92225,5.658875 C5.57225,5.658875 5.98725,5.653875 6.16725,5.645125 C6.14725,4.885125 6.13725,4.155125 6.13725,3.455125 L6.13725,2.030125 C6.13725,1.780125 6.14725,1.622625 6.16725,1.557625 C6.18725,1.491375 6.25225,1.428875 6.36225,1.370125 C6.47225,1.310125 6.63225,1.278875 6.84225,1.278875 C7.14225,1.278875 7.29225,1.460125 7.29225,1.820125 L7.29225,7.130125 C7.29225,8.230125 7.26725,9.440125 7.21725,10.758875 C7.20725,11.050125 6.96225,11.195125 6.48225,11.195125 C6.24225,11.195125 6.12225,11.050125 6.12225,10.758875 L6.18225,6.785125 C5.86225,6.805125 5.42475,6.815125 4.86975,6.815125 C4.31475,6.815125 3.61725,6.753875 2.77725,6.635125 C2.77725,7.955125 2.83725,9.335125 2.95725,10.775125 C2.96725,10.935125 2.89725,11.057625 2.74725,11.142625 C2.59725,11.226375 2.40975,11.270125 2.18475,11.270125 C1.95975,11.270125 1.83725,11.155125 1.81725,10.925125 C1.68725,9.503875 1.62225,8.103875 1.62225,6.725125 L1.71225,2.045125 C1.71225,1.845125 1.78725,1.696375 1.93725,1.602625 C2.08725,1.507625 2.24725,1.460125 2.41725,1.460125 C2.69725,1.460125 2.83725,1.593875 2.83725,1.865125 L2.77725,5.465125 Z" id="Fill-24" fill="#FFFFFF"></path>
            <path d="M23.100625,2.9895 C22.951875,2.9895 22.690625,3.432 22.320625,4.317 C21.950625,5.20325 21.766875,5.7495 21.766875,5.9595 C21.766875,6.0095 21.775625,6.0445 21.795625,6.0645 C21.876875,6.1445 22.190625,6.2145 22.741875,6.2745 C23.290625,6.3345 23.655625,6.3645 23.836875,6.3645 C24.015625,6.3645 24.115625,6.352 24.135625,6.327 C24.156875,6.302 24.166875,6.222 24.166875,6.08825 C24.166875,5.952 24.030625,5.40325 23.760625,4.437 C23.490625,3.47325 23.271875,2.9895 23.100625,2.9895 M23.161875,1.3245 C23.410625,1.3245 23.620625,1.4345 23.791875,1.65575 C23.960625,1.8745 24.180625,2.33075 24.450625,3.0195 C25.080625,4.6495 25.695625,7.2045 26.296875,10.6845 C26.305625,10.7245 26.310625,10.782 26.310625,10.857 C26.310625,10.932 26.263125,11.012 26.168125,11.097 C26.073125,11.18325 25.939375,11.2245 25.764375,11.2245 C25.588125,11.2245 25.440625,11.18325 25.320625,11.097 C25.201875,11.012 25.120625,10.87325 25.080625,10.677 C25.041875,10.482 24.965625,10.0995 24.855625,9.5295 C24.616875,8.2595 24.455625,7.5995 24.376875,7.5495 C24.256875,7.48075 23.858125,7.4045 23.183125,7.3245 C22.508125,7.2445 22.060625,7.2045 21.840625,7.2045 C21.620625,7.2045 21.490625,7.22575 21.451875,7.2645 C21.270625,7.4245 21.025625,8.64075 20.716875,10.9095 C20.676875,11.0995 20.485625,11.1945 20.146875,11.1945 C19.805625,11.1945 19.636875,11.0495 19.636875,10.7595 C19.636875,10.04075 19.900625,8.6645 20.430625,6.6345 C20.960625,4.6045 21.401875,3.2595 21.751875,2.5995 C22.190625,1.7495 22.660625,1.3245 23.161875,1.3245" id="Fill-26" fill="#FFFFFF"></path>
            <g id="Group-30" transform="translate(56.250000, 0.763125)">
                <mask id="mask-8" fill="white">
                    <use xlink:href="#path-7"></use>
                </mask>
                <g id="Clip-29"></g>
                <path d="M4.5155,0.486875 C4.99675,0.486875 5.47425,0.606875 5.948,0.846875 C6.423,1.085625 6.66175,1.355625 6.66175,1.656875 C6.66175,2.116875 6.4705,2.345625 6.09175,2.345625 C5.9505,2.345625 5.7055,2.256875 5.3555,2.075625 C5.00675,1.896875 4.7105,1.806875 4.4705,1.806875 C3.6105,1.806875 2.893,2.191875 2.318,2.960625 C1.743,3.731875 1.45675,4.711875 1.45675,5.901875 C1.45675,6.791875 1.6505,7.571875 2.04175,8.241875 C2.4305,8.911875 2.893,9.246875 3.428,9.246875 C3.96425,9.246875 4.38425,9.069375 4.68925,8.714375 C4.993,8.359375 5.1455,7.956875 5.1455,7.506875 C5.1455,7.256875 5.128,7.049375 5.093,6.884375 C5.05925,6.718125 4.9705,6.569375 4.8305,6.434375 C4.69175,6.298125 4.5055,6.231875 4.27675,6.231875 C4.0455,6.231875 3.828,6.181875 3.623,6.081875 C3.418,5.981875 3.3155,5.846875 3.3155,5.675625 C3.3155,5.506875 3.3655,5.346875 3.4655,5.196875 C3.5655,5.045625 3.70175,4.956875 3.8705,4.926875 C4.5505,4.926875 5.00925,4.995625 5.243,5.136875 C5.47925,5.276875 5.6555,5.391875 5.77675,5.481875 C5.8955,5.570625 5.99675,5.720625 6.0755,5.930625 C6.1555,6.140625 6.218,6.316875 6.263,6.455625 C6.30925,6.596875 6.3405,6.821875 6.36175,7.130625 C6.3805,7.650625 6.3905,8.259375 6.3905,8.953125 C6.3905,9.649375 6.3405,10.076875 6.2405,10.236875 C6.15175,10.366875 6.0005,10.434375 5.79175,10.439375 C5.58175,10.444375 5.4355,10.401875 5.3555,10.310625 C5.2755,10.221875 5.2255,10.021875 5.20675,9.711875 C4.9655,9.921875 4.663,10.098125 4.298,10.244375 C3.933,10.389375 3.6105,10.460625 3.33175,10.460625 C2.45175,10.460625 1.7105,9.993125 1.1105,9.058125 C0.5105,8.123125 0.21175,6.996875 0.21175,5.675625 C0.21175,4.976875 0.3255,4.289375 0.5555,3.614375 C0.78675,2.939375 1.09675,2.371875 1.4855,1.911875 C2.3055,0.961875 3.3155,0.486875 4.5155,0.486875" id="Fill-28" fill="#FFFFFF" mask="url(#mask-8)"></path>
            </g>
            <path d="M23.100625,30.517625 C22.951875,30.517625 22.690625,30.960125 22.320625,31.845125 C21.950625,32.731375 21.766875,33.277625 21.766875,33.487625 C21.766875,33.537625 21.775625,33.572625 21.795625,33.592625 C21.876875,33.672625 22.190625,33.742625 22.741875,33.802625 C23.290625,33.862625 23.655625,33.892625 23.836875,33.892625 C24.015625,33.892625 24.115625,33.880125 24.135625,33.855125 C24.156875,33.830125 24.166875,33.750125 24.166875,33.616375 C24.166875,33.480125 24.030625,32.931375 23.760625,31.965125 C23.490625,31.001375 23.271875,30.517625 23.100625,30.517625 M23.161875,28.852625 C23.410625,28.852625 23.620625,28.962625 23.791875,29.183875 C23.960625,29.402625 24.180625,29.858875 24.450625,30.547625 C25.080625,32.177625 25.695625,34.732625 26.296875,38.212625 C26.305625,38.252625 26.310625,38.310125 26.310625,38.385125 C26.310625,38.460125 26.263125,38.540125 26.168125,38.625125 C26.073125,38.711375 25.939375,38.752625 25.764375,38.752625 C25.588125,38.752625 25.440625,38.711375 25.320625,38.625125 C25.201875,38.540125 25.120625,38.401375 25.080625,38.205125 C25.041875,38.010125 24.965625,37.627625 24.855625,37.057625 C24.616875,35.787625 24.455625,35.127625 24.376875,35.077625 C24.256875,35.008875 23.858125,34.932625 23.183125,34.852625 C22.508125,34.772625 22.060625,34.732625 21.840625,34.732625 C21.620625,34.732625 21.490625,34.753875 21.451875,34.792625 C21.270625,34.952625 21.025625,36.168875 20.716875,38.437625 C20.676875,38.627625 20.485625,38.722625 20.146875,38.722625 C19.805625,38.722625 19.636875,38.577625 19.636875,38.287625 C19.636875,37.568875 19.900625,36.192625 20.430625,34.162625 C20.960625,32.132625 21.401875,30.787625 21.751875,30.127625 C22.190625,29.277625 22.660625,28.852625 23.161875,28.852625" id="Fill-31" fill="#FFFFFF"></path>
            <path d="M46.45025,28.807375 C46.61025,28.807375 46.75525,28.876125 46.8865,29.009875 C47.01525,29.146125 47.08025,29.302375 47.08025,29.482375 C47.08025,33.392375 47.099,35.756125 47.13275,36.569875 C47.16775,37.384875 47.18525,37.802375 47.18525,37.822375 C47.18525,38.043625 47.12525,38.251125 47.00525,38.444875 C46.8865,38.639875 46.75275,38.737375 46.60775,38.737375 C46.46275,38.737375 46.35275,38.729875 46.27775,38.716125 C46.204,38.699875 46.13525,38.682375 46.07525,38.663625 C46.01525,38.642375 45.95525,38.602375 45.8965,38.542375 L45.7465,38.392375 C45.70525,38.353625 45.65275,38.274875 45.589,38.159875 C45.52275,38.046125 45.47025,37.952375 45.4315,37.883625 C45.39025,37.812375 45.329,37.689875 45.24275,37.516125 C45.15775,37.339875 44.97275,36.982375 44.68775,36.442375 C44.40275,35.903625 44.14525,35.417375 43.9165,34.987375 C43.12525,33.537375 42.39025,32.392375 41.71025,31.552375 C41.71025,34.803625 41.6215,37.058625 41.44025,38.317375 C41.4115,38.558625 41.22525,38.677375 40.88525,38.677375 C40.72525,38.677375 40.59275,38.637375 40.48775,38.558625 C40.38275,38.477375 40.33025,38.348625 40.33025,38.167375 C40.33025,37.988625 40.369,36.998625 40.44275,35.197375 C40.51775,33.397375 40.55525,32.274875 40.55525,31.829875 L40.55525,30.982375 C40.55525,30.262375 40.61025,29.858625 40.72025,29.768625 C40.83025,29.677375 40.9465,29.632375 41.06525,29.632375 C41.61525,29.632375 42.45525,30.532375 43.58525,32.332375 C43.80525,32.683625 44.22525,33.416125 44.84525,34.529875 C45.46525,35.646125 45.8365,36.333625 45.95525,36.593625 L45.77525,30.367375 C45.77525,29.508625 45.87025,29.017375 46.06025,28.897375 C46.1615,28.837375 46.29025,28.807375 46.45025,28.807375" id="Fill-33" fill="#FFFFFF"></path>
            <path d="M71.372125,36.81275 C71.587125,36.81275 71.774625,36.89275 71.934625,37.05275 C72.094625,37.21275 72.189625,37.43275 72.219625,37.714 C72.219625,37.93275 72.139625,38.1365 71.979625,38.32025 C71.818375,38.50525 71.632125,38.599 71.417125,38.599 C71.202125,38.599 71.009625,38.5415 70.839625,38.42525 C70.669625,38.31025 70.584625,38.134 70.584625,37.89275 C70.584625,37.654 70.662125,37.41275 70.817125,37.17275 C70.972125,36.934 71.157125,36.81275 71.372125,36.81275" id="Fill-35" fill="#FFFFFF"></path>
            <path d="M77.45375,29.882875 C76.11375,29.882875 75.27875,30.519125 74.94875,31.787875 C74.84875,32.129125 74.79875,32.564125 74.79875,33.092875 C74.79875,33.622875 74.89875,34.237875 75.09875,34.937875 C75.36875,35.879125 75.76875,36.537875 76.29875,36.917875 C76.60875,37.157875 76.98375,37.277875 77.425,37.277875 C77.86375,37.277875 78.25875,37.081625 78.60875,36.685375 C78.95875,36.290375 79.19875,35.789125 79.32875,35.177875 C79.45875,34.567875 79.52375,33.954125 79.52375,33.334125 C79.52375,32.234125 79.36625,31.382875 79.05125,30.784125 C78.73625,30.182875 78.205,29.882875 77.45375,29.882875 M77.55875,28.637875 C78.25875,28.637875 78.85375,28.864125 79.34375,29.312875 C80.30375,30.172875 80.78375,31.530375 80.78375,33.386625 C80.78375,35.240375 80.25375,36.697875 79.195,37.759125 C78.64375,38.289125 78.00875,38.577875 77.28875,38.627875 C76.33875,38.627875 75.59875,38.302875 75.06875,37.654125 C74.53875,37.002875 74.16125,36.275375 73.9375,35.471625 C73.71125,34.665375 73.59875,33.887875 73.59875,33.137875 C73.59875,31.857875 73.90375,30.802875 74.51375,29.972875 C75.15375,29.082875 76.16875,28.637875 77.55875,28.637875" id="Fill-37" fill="#FFFFFF"></path>
            <path d="M85.291875,32.62825 C86.126875,32.09825 86.545625,31.62075 86.545625,31.19575 C86.545625,30.77075 86.334375,30.44325 85.914375,30.21325 C85.494375,29.98325 84.998125,29.86825 84.423125,29.86825 C83.848125,29.86825 83.390625,29.9395 83.049375,30.07825 C83.039375,30.58825 83.034375,31.71825 83.034375,33.46825 C83.704375,33.43825 84.456875,33.15825 85.291875,32.62825 M82.855625,38.45575 C82.695625,38.60075 82.521875,38.67325 82.338125,38.67325 C82.151875,38.67325 82.025625,38.55325 81.954375,38.31325 C81.925625,36.99325 81.910625,35.67825 81.910625,34.36825 L81.865625,30.58825 C81.865625,29.82825 82.199375,29.30825 82.870625,29.02825 C83.409375,28.77825 84.049375,28.65325 84.790625,28.65325 C85.169375,28.65325 85.578125,28.747 86.011875,28.93075 C86.448125,29.11575 86.836875,29.38575 87.183125,29.74075 C87.526875,30.097 87.700625,30.48075 87.700625,30.89575 C87.700625,31.31075 87.509375,31.75575 87.130625,32.23075 C86.749375,32.70575 86.279375,33.12575 85.720625,33.49075 C85.160625,33.85575 84.614375,34.12825 84.084375,34.30825 C85.014375,34.95825 85.825625,35.65575 86.515625,36.402 C87.204375,37.14575 87.550625,37.72325 87.550625,38.13325 C87.550625,38.26325 87.484375,38.38575 87.354375,38.50075 C87.225625,38.61575 87.066875,38.67325 86.881875,38.67325 C86.696875,38.67325 86.539375,38.59325 86.410625,38.4345 C86.190625,37.90325 85.773125,37.34575 85.158125,36.76075 C84.541875,36.17575 83.824375,35.6195 83.005625,35.08825 L83.094375,37.96825 C83.094375,38.14825 83.015625,38.31075 82.855625,38.45575" id="Fill-39" fill="#FFFFFF"></path>
            <path d="M93.083625,28.653625 C93.564875,28.653625 94.042375,28.773625 94.516125,29.013625 C94.991125,29.252375 95.229875,29.522375 95.229875,29.823625 C95.229875,30.283625 95.038625,30.512375 94.659875,30.512375 C94.518625,30.512375 94.273625,30.423625 93.923625,30.242375 C93.574875,30.063625 93.278625,29.973625 93.038625,29.973625 C92.178625,29.973625 91.461125,30.358625 90.886125,31.127375 C90.311125,31.898625 90.024875,32.878625 90.024875,34.068625 C90.024875,34.958625 90.218625,35.738625 90.609875,36.408625 C90.998625,37.078625 91.461125,37.413625 91.996125,37.413625 C92.532375,37.413625 92.952375,37.236125 93.257375,36.881125 C93.561125,36.526125 93.713625,36.123625 93.713625,35.673625 C93.713625,35.423625 93.696125,35.216125 93.661125,35.051125 C93.627375,34.884875 93.538625,34.736125 93.398625,34.601125 C93.259875,34.464875 93.073625,34.398625 92.844875,34.398625 C92.613625,34.398625 92.396125,34.348625 92.191125,34.248625 C91.986125,34.148625 91.883625,34.013625 91.883625,33.842375 C91.883625,33.673625 91.933625,33.513625 92.033625,33.363625 C92.133625,33.212375 92.269875,33.123625 92.438625,33.093625 C93.118625,33.093625 93.577375,33.162375 93.811125,33.303625 C94.047375,33.443625 94.223625,33.558625 94.344875,33.648625 C94.463625,33.737375 94.564875,33.887375 94.643625,34.097375 C94.723625,34.307375 94.786125,34.483625 94.831125,34.622375 C94.877375,34.763625 94.908625,34.988625 94.929875,35.297375 C94.948625,35.817375 94.958625,36.426125 94.958625,37.119875 C94.958625,37.816125 94.908625,38.243625 94.808625,38.403625 C94.719875,38.533625 94.568625,38.601125 94.359875,38.606125 C94.149875,38.611125 94.003625,38.568625 93.923625,38.477375 C93.843625,38.388625 93.793625,38.188625 93.774875,37.878625 C93.533625,38.088625 93.231125,38.264875 92.866125,38.411125 C92.501125,38.556125 92.178625,38.627375 91.899875,38.627375 C91.019875,38.627375 90.278625,38.159875 89.678625,37.224875 C89.078625,36.289875 88.779875,35.163625 88.779875,33.842375 C88.779875,33.143625 88.893625,32.456125 89.123625,31.781125 C89.354875,31.106125 89.664875,30.538625 90.053625,30.078625 C90.873625,29.128625 91.883625,28.653625 93.083625,28.653625" id="Fill-41" fill="#FFFFFF"></path>
        </g>
    </g>
</svg>