<svg width="40px" height="47px" viewBox="0 0 40 47" version="1.1" xmlns="http://www.w3.org/2000/svg" xmlns:xlink="http://www.w3.org/1999/xlink">
    <!-- Generator: Sketch 64 (93537) - https://sketch.com -->
    <title>Fill 1</title>
    <desc>Created with Sketch.</desc>
    <g id="Components" stroke="none" stroke-width="1" fill="none" fill-rule="evenodd">
        <path d="M21.3127287,43.3858894 C12.3300736,44.1577326 2.75999931,38.2552138 2.60994736,25.6633871 C2.50934435,17.2755971 8.19597205,7.88537182 14.8178667,4.43396226 C15.0054316,4.58128504 15.2398878,4.66348687 15.5297609,4.63786552 C24.8056993,3.82865784 34.8122884,6.33314494 37.056247,19.4907765 C39.1816987,31.9587666 30.8683094,42.5649386 21.3127287,43.3858894 M39.9194598,21.5668993 C39.4596797,15.5211328 36.9496905,9.77990656 33.1449675,6.0342765 C29.7581486,2.69934678 25.7295178,1.60021399 21.6008976,1.39539998 C21.5137274,0.693027321 21.1077877,0.0485601953 20.3830785,0.0131734812 C10.2995369,-0.488674464 -0.146359356,13.440823 0.00148814858,25.9183928 C0.171555509,40.332581 10.8259765,47.7691526 21.312894,46.9370287 C31.7322974,46.1102663 40.9612292,35.2637023 39.9194598,21.5668993" id="Fill-1" fill="#4A83F7"></path>
    </g>
</svg>