<svg width="32px" height="33px" viewBox="0 0 32 33" version="1.1" xmlns="http://www.w3.org/2000/svg" xmlns:xlink="http://www.w3.org/1999/xlink">
    <title>Fill 1</title>
    <desc>Created with Sketch.</desc>
    <g id="Components" stroke="none" stroke-width="1" fill="none" fill-rule="evenodd">
        <path d="M31.6670009,31.0319093 C31.3158809,30.6788093 30.9707009,30.3191093 30.6215609,29.9640293 C30.6770009,29.7468893 30.6374009,29.5046693 30.4440209,29.2928093 C25.7534009,24.1613093 21.2205209,18.8945093 16.8401009,13.5029693 C18.6623609,11.7658493 20.5044209,10.0485293 22.3702409,8.35694928 C23.6097209,7.47056928 24.8643809,6.60200928 26.1401609,5.76116928 C26.5183409,5.51234928 26.5460609,5.09126928 26.3876609,4.77512928 C27.7485809,3.58382928 29.1180809,2.40308928 30.5001209,1.23554928 C31.2314009,0.619109283 30.1767209,-0.426990717 29.4507209,0.186149283 C28.8989609,0.651449283 28.3564409,1.12532928 27.8086409,1.59458928 C27.5558609,1.47248928 27.2397209,1.46720928 26.9671409,1.68434928 C22.9728209,4.86752928 19.0920209,8.18666928 15.3452009,11.6536493 C12.7217009,8.37938928 10.1523209,5.06090928 7.64498087,1.69292928 C7.12556087,0.995309283 5.99630087,1.56620928 6.26360087,2.25986928 C6.24116087,2.23016928 6.21674087,2.20112928 6.19364087,2.17142928 C5.60558087,1.42034928 4.56080087,2.47766928 5.14358087,3.22148928 C7.85222087,6.68120928 10.6341209,10.0795493 13.4767409,13.4231093 C8.73464087,17.4451493 4.29020087,21.8110493 0.191600873,26.5326893 C-0.285579127,27.0824693 0.214040873,27.8256293 0.756560873,27.8223293 C0.701780873,27.8823893 0.646340873,27.9404693 0.591560873,28.0005293 C-0.049959127,28.7067293 0.997460873,29.7594293 1.64162087,29.0505893 C1.76306087,28.9172693 1.88714087,28.7872493 2.00792087,28.6539293 C2.07854087,28.6011293 2.14124087,28.5364493 2.19272087,28.4552693 C6.33950087,23.9177693 10.6202609,19.5109493 15.0297209,15.2381093 C20.0265809,21.0302693 25.2201209,26.6488493 30.6169409,32.0826293 C31.2914609,32.7611093 32.3415209,31.7110493 31.6670009,31.0319093" id="Fill-1" fill="#EA3454"></path>
    </g>
</svg>